<svg xmlns="http://www.w3.org/2000/svg" xmlns:xlink="http://www.w3.org/1999/xlink" width="500" zoomAndPan="magnify" viewBox="0 0 375 374.999991" height="500" preserveAspectRatio="xMidYMid meet" version="1.0"><defs><clipPath id="9d8cfd1862"><path d="M 79 137.1875 L 295.730469 137.1875 L 295.730469 237.6875 L 79 237.6875 Z M 79 137.1875 " clip-rule="nonzero"/></clipPath></defs><g clip-path="url(#9d8cfd1862)"><path fill="#000000" d="M 294.21875 194.730469 C 293.667969 193.492188 293.253906 192.183594 293.046875 190.808594 C 292.910156 189.84375 292.632812 188.8125 292.359375 187.988281 C 291.945312 186.609375 291.808594 185.097656 291.742188 183.652344 C 291.601562 180.003906 287.199219 178.214844 287.199219 178.214844 C 273.644531 171.953125 250.316406 170.988281 250.316406 170.988281 C 242.402344 170.164062 240.339844 168.375 238.136719 166.035156 C 236.140625 163.96875 224.375 152.339844 221.761719 149.722656 C 221.417969 149.378906 221.074219 149.035156 220.730469 148.761719 C 219.214844 147.523438 217.769531 146.214844 216.53125 145.183594 C 215.222656 144.082031 214.328125 143.253906 214.328125 143.253906 C 214.742188 142.566406 214.46875 141.671875 213.710938 141.328125 C 213.574219 141.257812 213.433594 141.191406 213.296875 141.121094 C 210.0625 139.675781 206.621094 138.78125 203.113281 138.367188 C 192.929688 137.472656 174.558594 137.199219 174.558594 137.199219 L 132.171875 137.820312 C 127.078125 137.820312 122.539062 141.742188 122.539062 141.742188 L 108.292969 155.023438 L 94.121094 168.582031 L 82.628906 180.074219 C 80.152344 182.550781 78.980469 185.992188 79.464844 189.433594 L 80.152344 194.664062 C 80.289062 195.765625 80.355469 196.863281 80.425781 197.964844 C 80.839844 204.984375 84.761719 210.835938 85.585938 212.003906 C 85.65625 212.140625 85.792969 212.210938 85.929688 212.347656 C 86 212.417969 86.136719 212.488281 86.207031 212.554688 C 91.296875 215.789062 97.972656 214 100.863281 208.703125 C 101.480469 207.464844 102.238281 206.363281 102.71875 205.671875 C 103.066406 205.191406 103.339844 204.640625 103.546875 204.089844 C 107.261719 195.695312 118.753906 195.832031 118.753906 195.832031 C 131.757812 194.9375 136.988281 201.269531 136.988281 201.269531 C 138.433594 202.785156 140.566406 206.773438 141.734375 209.183594 C 142.355469 210.421875 142.90625 211.730469 143.25 213.105469 C 144.28125 216.960938 145.246094 221.226562 145.246094 221.226562 L 232.632812 222.601562 C 238.964844 222.464844 239.445312 219.988281 239.375 218.957031 C 239.308594 218.335938 239.238281 217.71875 239.308594 217.027344 C 239.71875 205.742188 247.359375 199 247.359375 199 C 255.066406 190.671875 267.242188 194.664062 267.242188 194.664062 C 274.8125 196.660156 279.628906 205.605469 279.628906 205.605469 C 283.621094 211.523438 284.035156 217.578125 284.035156 217.578125 C 284.035156 221.226562 285.066406 222.191406 285.066406 222.191406 C 285.480469 222.257812 285.890625 222.328125 286.304688 222.398438 C 289.125 222.671875 291.601562 220.605469 292.015625 217.785156 C 292.429688 215.101562 294.148438 212.347656 294.148438 212.347656 C 295.25 208.425781 295.523438 202.578125 295.523438 202.578125 C 295.730469 199.066406 294.90625 196.382812 294.21875 194.730469 Z M 159.902344 146.078125 L 158.25 166.585938 C 157.628906 170.644531 155.085938 170.78125 155.085938 170.78125 L 118.890625 169.40625 C 113.800781 168.925781 115.449219 163.558594 115.449219 163.558594 L 131.6875 144.425781 L 157.835938 143.804688 C 159.96875 144.082031 159.902344 146.078125 159.902344 146.078125 Z M 170.429688 180.210938 C 170.152344 180.484375 169.808594 180.625 169.328125 180.625 L 163.066406 180.625 C 162.171875 180.625 161.414062 179.933594 161.484375 179.039062 C 161.484375 178.628906 161.691406 178.285156 161.898438 178.078125 C 162.171875 177.800781 162.515625 177.664062 162.996094 177.664062 L 169.257812 177.664062 C 170.152344 177.664062 170.910156 178.351562 170.84375 179.246094 C 170.84375 179.589844 170.636719 179.933594 170.429688 180.210938 Z M 225.546875 171.675781 L 167.539062 170.851562 C 163.410156 170.78125 163.824219 168.855469 163.824219 168.855469 L 165.199219 145.9375 C 165.269531 144.425781 168.296875 144.21875 168.296875 144.21875 L 205.933594 145.9375 L 224.101562 166.859375 C 227.886719 171.195312 225.546875 171.675781 225.546875 171.675781 Z M 120.816406 198.308594 C 109.945312 198.308594 101.136719 207.117188 101.136719 217.992188 C 101.136719 228.867188 109.945312 237.675781 120.816406 237.675781 C 131.6875 237.675781 140.496094 228.867188 140.496094 217.992188 C 140.496094 207.117188 131.6875 198.308594 120.816406 198.308594 Z M 120.816406 227.625 C 115.519531 227.625 111.183594 223.292969 111.183594 217.992188 C 111.183594 212.691406 115.519531 208.359375 120.816406 208.359375 C 126.117188 208.359375 130.449219 212.691406 130.449219 217.992188 C 130.519531 223.292969 126.183594 227.625 120.816406 227.625 Z M 261.53125 198.308594 C 250.660156 198.308594 241.851562 207.117188 241.851562 217.992188 C 241.851562 228.867188 250.660156 237.675781 261.53125 237.675781 C 272.40625 237.675781 281.210938 228.867188 281.210938 217.992188 C 281.210938 207.117188 272.40625 198.308594 261.53125 198.308594 Z M 261.53125 227.625 C 256.234375 227.625 251.898438 223.292969 251.898438 217.992188 C 251.898438 212.691406 256.234375 208.359375 261.53125 208.359375 C 266.832031 208.359375 271.167969 212.691406 271.167969 217.992188 C 271.234375 223.292969 266.898438 227.625 261.53125 227.625 Z M 261.53125 227.625 " fill-opacity="1" fill-rule="nonzero"/></g></svg>