<svg xmlns="http://www.w3.org/2000/svg" xmlns:xlink="http://www.w3.org/1999/xlink" width="500" zoomAndPan="magnify" viewBox="0 0 375 374.999991" height="500" preserveAspectRatio="xMidYMid meet" version="1.0"><defs><clipPath id="1bda11a800"><path d="M 72.410156 37.5 L 302.589844 37.5 L 302.589844 325 L 72.410156 325 Z M 72.410156 37.5 " clip-rule="nonzero"/></clipPath><clipPath id="9febaff1a7"><path d="M 89.660156 37.5 L 285.339844 37.5 C 289.914062 37.5 294.300781 39.316406 297.535156 42.550781 C 300.773438 45.789062 302.589844 50.175781 302.589844 54.75 L 302.589844 307.699219 C 302.589844 312.273438 300.773438 316.660156 297.535156 319.894531 C 294.300781 323.128906 289.914062 324.949219 285.339844 324.949219 L 89.660156 324.949219 C 85.085938 324.949219 80.699219 323.128906 77.464844 319.894531 C 74.226562 316.660156 72.410156 312.273438 72.410156 307.699219 L 72.410156 54.75 C 72.410156 50.175781 74.226562 45.789062 77.464844 42.550781 C 80.699219 39.316406 85.085938 37.5 89.660156 37.5 Z M 89.660156 37.5 " clip-rule="nonzero"/></clipPath><clipPath id="5552f02774"><path d="M 0.410156 0.5 L 230.589844 0.5 L 230.589844 287.960938 L 0.410156 287.960938 Z M 0.410156 0.5 " clip-rule="nonzero"/></clipPath><clipPath id="683e68a5fa"><path d="M 17.660156 0.5 L 213.339844 0.5 C 217.914062 0.5 222.300781 2.316406 225.535156 5.550781 C 228.773438 8.789062 230.589844 13.175781 230.589844 17.75 L 230.589844 270.699219 C 230.589844 275.273438 228.773438 279.660156 225.535156 282.894531 C 222.300781 286.128906 217.914062 287.949219 213.339844 287.949219 L 17.660156 287.949219 C 13.085938 287.949219 8.699219 286.128906 5.464844 282.894531 C 2.226562 279.660156 0.410156 275.273438 0.410156 270.699219 L 0.410156 17.75 C 0.410156 13.175781 2.226562 8.789062 5.464844 5.550781 C 8.699219 2.316406 13.085938 0.5 17.660156 0.5 Z M 17.660156 0.5 " clip-rule="nonzero"/></clipPath><clipPath id="721753dd28"><rect x="0" width="231" y="0" height="288"/></clipPath><clipPath id="d9f460f98e"><path d="M 72.410156 37.5 L 302.660156 37.5 L 302.660156 324.75 L 72.410156 324.75 Z M 72.410156 37.5 " clip-rule="nonzero"/></clipPath><clipPath id="550d48a551"><path d="M 89.660156 37.5 L 285.328125 37.5 C 289.90625 37.5 294.292969 39.320312 297.527344 42.554688 C 300.761719 45.789062 302.578125 50.175781 302.578125 54.75 L 302.578125 307.6875 C 302.578125 312.261719 300.761719 316.648438 297.527344 319.882812 C 294.292969 323.117188 289.90625 324.9375 285.328125 324.9375 L 89.660156 324.9375 C 85.085938 324.9375 80.699219 323.117188 77.464844 319.882812 C 74.226562 316.648438 72.410156 312.261719 72.410156 307.6875 L 72.410156 54.75 C 72.410156 50.175781 74.226562 45.789062 77.464844 42.554688 C 80.699219 39.320312 85.085938 37.5 89.660156 37.5 Z M 89.660156 37.5 " clip-rule="nonzero"/></clipPath></defs><g clip-path="url(#1bda11a800)"><g clip-path="url(#9febaff1a7)"><g transform="matrix(1, 0, 0, 1, 72, 37)"><g clip-path="url(#721753dd28)"><g clip-path="url(#5552f02774)"><g clip-path="url(#683e68a5fa)"><path fill="#000000" d="M 0.410156 0.5 L 230.589844 0.5 L 230.589844 288.222656 L 0.410156 288.222656 Z M 0.410156 0.5 " fill-opacity="1" fill-rule="nonzero"/></g></g></g></g></g></g><g clip-path="url(#d9f460f98e)"><g clip-path="url(#550d48a551)"><path stroke-linecap="butt" transform="matrix(0.75, 0, 0, 0.75, 72.411086, 37.501045)" fill="none" stroke-linejoin="miter" d="M 22.998763 -0.0013932 L 283.889422 -0.0013932 C 289.993589 -0.0013932 295.842549 2.42569 300.155049 6.738191 C 304.46755 11.050692 306.889425 16.899651 306.889425 22.99861 L 306.889425 360.248654 C 306.889425 366.347613 304.46755 372.196572 300.155049 376.509072 C 295.842549 380.821573 289.993589 383.248656 283.889422 383.248656 L 22.998763 383.248656 C 16.899804 383.248656 11.050845 380.821573 6.738344 376.509072 C 2.420635 372.196572 -0.00123986 366.347613 -0.00123986 360.248654 L -0.00123986 22.99861 C -0.00123986 16.899651 2.420635 11.050692 6.738344 6.738191 C 11.050845 2.42569 16.899804 -0.0013932 22.998763 -0.0013932 Z M 22.998763 -0.0013932 " stroke="#ffffff" stroke-width="8" stroke-opacity="1" stroke-miterlimit="4"/></g></g></svg>