<svg xmlns="http://www.w3.org/2000/svg" xmlns:xlink="http://www.w3.org/1999/xlink" width="500" zoomAndPan="magnify" viewBox="0 0 375 374.999991" height="500" preserveAspectRatio="xMidYMid meet" version="1.0"><defs><clipPath id="a49dee4907"><path d="M 72.410156 37.5 L 302.6875 37.5 L 302.6875 162.394531 L 72.410156 162.394531 Z M 72.410156 37.5 " clip-rule="nonzero"/></clipPath><clipPath id="565269fe68"><path d="M 89.660156 37.5 L 285.339844 37.5 C 289.914062 37.5 294.300781 39.316406 297.535156 42.550781 C 300.769531 45.789062 302.589844 50.175781 302.589844 54.75 L 302.589844 145.144531 C 302.589844 149.71875 300.769531 154.109375 297.535156 157.34375 C 294.300781 160.578125 289.914062 162.394531 285.339844 162.394531 L 89.660156 162.394531 C 85.085938 162.394531 80.699219 160.578125 77.464844 157.34375 C 74.226562 154.109375 72.410156 149.71875 72.410156 145.144531 L 72.410156 54.75 C 72.410156 50.175781 74.226562 45.789062 77.464844 42.550781 C 80.699219 39.316406 85.085938 37.5 89.660156 37.5 Z M 89.660156 37.5 " clip-rule="nonzero"/></clipPath><clipPath id="29e7edea45"><path d="M 0.410156 0.5 L 230.640625 0.5 L 230.640625 125.394531 L 0.410156 125.394531 Z M 0.410156 0.5 " clip-rule="nonzero"/></clipPath><clipPath id="c603e8e314"><path d="M 17.660156 0.5 L 213.339844 0.5 C 217.914062 0.5 222.300781 2.316406 225.535156 5.550781 C 228.769531 8.789062 230.589844 13.175781 230.589844 17.75 L 230.589844 108.144531 C 230.589844 112.71875 228.769531 117.109375 225.535156 120.34375 C 222.300781 123.578125 217.914062 125.394531 213.339844 125.394531 L 17.660156 125.394531 C 13.085938 125.394531 8.699219 123.578125 5.464844 120.34375 C 2.226562 117.109375 0.410156 112.71875 0.410156 108.144531 L 0.410156 17.75 C 0.410156 13.175781 2.226562 8.789062 5.464844 5.550781 C 8.699219 2.316406 13.085938 0.5 17.660156 0.5 Z M 17.660156 0.5 " clip-rule="nonzero"/></clipPath><clipPath id="8b9f570a3e"><rect x="0" width="231" y="0" height="126"/></clipPath></defs><g clip-path="url(#a49dee4907)"><g clip-path="url(#565269fe68)"><g transform="matrix(1, 0, 0, 1, 72, 37)"><g clip-path="url(#8b9f570a3e)"><g clip-path="url(#29e7edea45)"><g clip-path="url(#c603e8e314)"><path fill="#cfb991" d="M 0.410156 0.5 L 230.6875 0.5 L 230.6875 125.394531 L 0.410156 125.394531 Z M 0.410156 0.5 " fill-opacity="1" fill-rule="nonzero"/></g></g></g></g></g></g></svg>