<svg xmlns="http://www.w3.org/2000/svg" xmlns:xlink="http://www.w3.org/1999/xlink" width="500" zoomAndPan="magnify" viewBox="0 0 375 374.999991" height="500" preserveAspectRatio="xMidYMid meet" version="1.0"><defs><clipPath id="aba5a7d3d8"><path d="M 72.410156 37.5 L 302.660156 37.5 L 302.660156 324.75 L 72.410156 324.75 Z M 72.410156 37.5 " clip-rule="nonzero"/></clipPath><clipPath id="0034736c85"><path d="M 89.660156 37.5 L 285.328125 37.5 C 289.90625 37.5 294.292969 39.320312 297.527344 42.554688 C 300.761719 45.789062 302.578125 50.175781 302.578125 54.75 L 302.578125 307.6875 C 302.578125 312.261719 300.761719 316.648438 297.527344 319.882812 C 294.292969 323.117188 289.90625 324.9375 285.328125 324.9375 L 89.660156 324.9375 C 85.085938 324.9375 80.699219 323.117188 77.464844 319.882812 C 74.226562 316.648438 72.410156 312.261719 72.410156 307.6875 L 72.410156 54.75 C 72.410156 50.175781 74.226562 45.789062 77.464844 42.554688 C 80.699219 39.320312 85.085938 37.5 89.660156 37.5 Z M 89.660156 37.5 " clip-rule="nonzero"/></clipPath></defs><g clip-path="url(#aba5a7d3d8)"><g clip-path="url(#0034736c85)"><path stroke-linecap="butt" transform="matrix(0.75, 0, 0, 0.75, 72.411086, 37.501045)" fill="none" stroke-linejoin="miter" d="M 22.998763 -0.0013932 L 283.889422 -0.0013932 C 289.993589 -0.0013932 295.842549 2.42569 300.155049 6.738191 C 304.46755 11.050692 306.889425 16.899651 306.889425 22.99861 L 306.889425 360.248654 C 306.889425 366.347613 304.46755 372.196572 300.155049 376.509072 C 295.842549 380.821573 289.993589 383.248656 283.889422 383.248656 L 22.998763 383.248656 C 16.899804 383.248656 11.050845 380.821573 6.738344 376.509072 C 2.420635 372.196572 -0.00123986 366.347613 -0.00123986 360.248654 L -0.00123986 22.99861 C -0.00123986 16.899651 2.420635 11.050692 6.738344 6.738191 C 11.050845 2.42569 16.899804 -0.0013932 22.998763 -0.0013932 Z M 22.998763 -0.0013932 " stroke="#000000" stroke-width="8" stroke-opacity="1" stroke-miterlimit="4"/></g></g></svg>